<svg width="21" height="21" viewBox="0 0 21 21" fill="none" xmlns="http://www.w3.org/2000/svg">
<mask id="path-1-inside-1_200_462" fill="white">
<path d="M0.707107 11.3138C0.316582 10.9233 0.316583 10.2901 0.707107 9.89958L9.89949 0.707195C10.29 0.31667 10.9232 0.31667 11.3137 0.707195L20.5061 9.89958C20.8966 10.2901 20.8966 10.9233 20.5061 11.3138L11.3137 20.5062C10.9232 20.8967 10.29 20.8967 9.89949 20.5062L0.707107 11.3138Z"/>
</mask>
<path d="M0 10.6067L10.6066 8.79169e-05L0 10.6067ZM22.6274 7.77826C24.1895 9.34036 24.1895 11.873 22.6274 13.4351L15.5563 20.5062C13.9943 22.0683 11.4616 22.0683 9.89949 20.5062L8.48528 19.092C8.48528 19.092 8.80186 18.7754 9.19239 18.3849L16.9706 10.6067L22.6274 7.77826ZM10.6066 21.2133L0 10.6067L10.6066 21.2133ZM9.89949 0.707195C11.4616 -0.854902 13.9943 -0.854902 15.5563 0.707195L22.6274 7.77826C24.1895 9.34036 24.1895 11.873 22.6274 13.4351L16.9706 10.6067L9.19239 2.82851C8.80186 2.43799 8.48528 2.12141 8.48528 2.12141L9.89949 0.707195Z" fill="#FCC419" mask="url(#path-1-inside-1_200_462)"/>
</svg>
