<svg width="50" height="50" viewBox="0 0 50 50" fill="none" xmlns="http://www.w3.org/2000/svg">
<path d="M10.4167 6.25C8.11875 6.25 6.25 8.11875 6.25 10.4167V39.5833C6.25 41.8812 8.11875 43.75 10.4167 43.75H24.2106H30.0293H39.5833C41.8812 43.75 43.75 41.8812 43.75 39.5833V10.4167C43.75 8.11875 41.8812 6.25 39.5833 6.25H10.4167ZM10.4167 10.4167H39.5833L39.5874 39.5833H30.0293V31.3232H34.9569L35.6893 25.647H30.0618V22.0296C30.0618 20.388 30.5194 19.279 32.8735 19.279H35.848V14.2131C34.4001 14.0651 32.9463 13.9932 31.4901 13.9974C27.1692 13.9974 24.2106 16.6346 24.2106 21.4762V25.6551H19.3278V31.3314H24.2106V39.5833H10.4167V10.4167Z" fill="#FFCA1E"/>
</svg>
