<svg width="79" height="75" viewBox="0 0 79 75" fill="none" xmlns="http://www.w3.org/2000/svg">
<path d="M27.6035 54.1695C27.2063 55.8909 29.0726 57.2443 30.5853 56.3318L38.6269 51.4813C39.2658 51.096 40.0661 51.0983 40.7028 51.4873L48.7382 56.3979C50.249 57.3212 52.126 55.9705 51.7305 54.2445L49.6229 45.0476C49.4575 44.3261 49.7042 43.5723 50.264 43.0881L57.348 36.9614C58.6837 35.8062 57.9761 33.6132 56.2171 33.4565L46.9009 32.627C46.1666 32.5616 45.5278 32.0976 45.2386 31.4195L41.4996 22.652C40.8094 21.0338 38.5167 21.0307 37.8223 22.6471L34.0962 31.3199C33.806 31.9955 33.1684 32.4573 32.436 32.5225L23.0829 33.3553C21.3288 33.5115 20.6181 35.6946 21.9442 36.8535L29.077 43.0867C29.6324 43.572 29.8756 44.3237 29.7098 45.0424L27.6035 54.1695ZM17.9842 73.7255C16.4711 74.6383 14.6043 73.2839 15.0026 71.5623L20.437 48.069C20.6039 47.3472 20.3583 46.5923 19.7985 46.1071L1.56996 30.3034C0.234897 29.1459 0.946795 26.9525 2.70712 26.7997L26.7998 24.7084C27.5381 24.6443 28.1805 24.1771 28.469 23.4944L37.8244 1.35883C38.5127 -0.269702 40.8206 -0.269705 41.5089 1.35883L50.8643 23.4944C51.1528 24.1771 51.7952 24.6443 52.5336 24.7084L76.6262 26.7997C78.3865 26.9525 79.0984 29.1459 77.7634 30.3034L59.5348 46.1071C58.9751 46.5923 58.7294 47.3472 58.8964 48.069L64.3308 71.5623C64.729 73.2839 62.8623 74.6383 61.3492 73.7255L40.6997 61.269C40.0644 60.8857 39.269 60.8857 38.6336 61.269L17.9842 73.7255Z" fill="#FFCA1E"/>
</svg>
