<svg width="78" height="75" viewBox="0 0 78 75" fill="none" xmlns="http://www.w3.org/2000/svg">
<path d="M17.3172 74.0586C15.8041 74.9713 13.9373 73.6169 14.3356 71.8953L19.77 48.402C19.9369 47.6802 19.6913 46.9253 19.1316 46.4401L0.902963 30.6364C-0.432095 29.4789 0.279803 27.2855 2.04013 27.1327L26.1328 25.0414C26.8711 24.9773 27.5135 24.5101 27.802 23.8275L37.1575 1.69184C37.8457 0.0633061 40.1536 0.0633028 40.8419 1.69184L50.1973 23.8275C50.4859 24.5101 51.1282 24.9773 51.8666 25.0414L75.9592 27.1327C77.7195 27.2855 78.4314 29.4789 77.0964 30.6364L58.8678 46.4401C58.3081 46.9253 58.0624 47.6802 58.2294 48.402L63.6638 71.8953C64.062 73.6169 62.1953 74.9713 60.6822 74.0586L40.0327 61.602C39.3974 61.2187 38.602 61.2187 37.9666 61.602L17.3172 74.0586Z" fill="#FFCA1E"/>
</svg>
