<svg width="3136" height="604" viewBox="0 0 3136 604" fill="none" xmlns="http://www.w3.org/2000/svg">
<path d="M644.057 28.3331C938.057 -45.1668 1341.06 42.3333 1482.56 139.833L1464.56 198.333L1482.56 247.833L1499.56 267.333V363.833L1396.56 416.333C1412.06 233.333 1276.06 225.833 1276.06 225.833H1168.56C1128.56 229.333 1107.56 267.333 1107.56 267.333C1076.06 312.833 1043.06 308.333 1043.06 308.333H433.556C402.056 303.833 375.556 267.333 375.556 267.333C344.556 224.333 315.056 225.833 315.056 225.833H210.056C24.5562 280.333 94.557 449.833 94.557 449.833C-29.4438 387.333 5.55702 303.333 5.55702 303.333L39.057 189.333C157.557 131.833 392.557 126.333 392.557 126.333L416.557 111.833L481.557 135.333H1260.06C1293.56 117.833 1252.06 102.333 1252.06 102.333C1002.06 1.83325 644.057 28.3331 644.057 28.3331Z" fill="#2F2F2F" stroke="#515151" stroke-width="2"/>
<path d="M1056 377.5C1052.5 376.499 486 377.5 448.5 377.5C411 377.5 394.5 350 382 333.5C369.5 317 349.5 296.5 326.5 296.5H212.5C182 296.5 156 342.5 156 342.5H263.5C304.5 342.5 348.5 412.501 346 448.5C343.5 484.499 303.5 556 263.5 556H156C156 556 181 603 212.5 603H326.5C336.5 603 368.5 589.001 382 566.5C395.5 543.999 417 521.5 448.5 521.5H1056C1078.5 521.5 1103.5 543.501 1111.5 556.5C1119.5 569.499 1148.5 603 1176 603H1279.5C1322 603 1343 556.5 1343 556.5H1241C1208 556.5 1152.63 502.556 1153 448C1153.37 393.899 1205 341 1241 341H1343C1343 341 1317.5 296.001 1279.5 296C1251.05 296 1215.59 296 1193.27 296L1176 296C1161 296 1134.5 306.999 1111.5 341C1088.5 375.002 1059.5 378.502 1056 377.5Z" fill="#2F2F2F" stroke="#515151" stroke-width="2"/>
<mask id="path-3-outside-1_248_1088" maskUnits="userSpaceOnUse" x="1692.56" y="207.5" width="1438" height="190" fill="black">
<rect fill="white" x="1692.56" y="207.5" width="1438" height="190"/>
<path d="M1718.56 392.5V362.5H1764.06C1777.06 362.5 1788.06 359.917 1797.06 354.75C1806.22 349.417 1813.14 342.167 1817.81 333C1822.64 323.833 1825.06 313.333 1825.06 301.5C1825.06 289.833 1822.72 279.583 1818.06 270.75C1813.39 261.917 1806.47 255 1797.31 250C1788.31 245 1777.22 242.5 1764.06 242.5H1719.31V212.5H1764.06C1784.22 212.5 1801.81 216.167 1816.81 223.5C1831.81 230.667 1843.39 241 1851.56 254.5C1859.89 267.833 1864.06 283.667 1864.06 302C1864.06 320.333 1859.89 336.333 1851.56 350C1843.22 363.5 1831.56 374 1816.56 381.5C1801.72 388.833 1784.31 392.5 1764.31 392.5H1718.56ZM1695.06 392.5V212.5H1733.56V392.5H1695.06ZM1983.02 392.5V212.5H2063.52C2076.52 212.5 2087.85 214.75 2097.52 219.25C2107.19 223.583 2114.69 229.75 2120.02 237.75C2125.35 245.75 2128.02 255.083 2128.02 265.75C2128.02 276.25 2125.35 285.5 2120.02 293.5C2114.69 301.333 2107.19 307.5 2097.52 312C2087.85 316.333 2076.52 318.5 2063.52 318.5H2013.52V290.25H2062.52C2071.69 290.25 2078.69 288.167 2083.52 284C2088.52 279.667 2091.02 273.667 2091.02 266C2091.02 258.167 2088.6 252.25 2083.77 248.25C2078.94 244.083 2071.85 242 2062.52 242H2021.52V392.5H1983.02ZM2084.52 392.5L2012.27 299H2053.02L2136.52 392.5H2084.52ZM2251.01 392.5V212.5H2289.51V392.5H2251.01ZM2472.49 392.5L2407.99 212.5H2447.99L2497.24 362.5H2492.49L2541.99 212.5H2579.99L2515.49 392.5H2472.49ZM2698.57 392.5V212.5H2737.07V392.5H2698.57ZM2716.57 392.5V363H2832.57V392.5H2716.57ZM2716.57 315V286H2823.82V315H2716.57ZM2716.57 242V212.5H2829.57V242H2716.57ZM3035.48 395C3022.15 395 3009.81 392.75 2998.48 388.25C2987.31 383.75 2977.56 377.417 2969.23 369.25C2961.06 360.917 2954.65 351.083 2949.98 339.75C2945.48 328.25 2943.23 315.583 2943.23 301.75C2943.23 283.417 2947.15 267.417 2954.98 253.75C2962.81 239.917 2973.65 229.167 2987.48 221.5C3001.48 213.833 3017.4 210 3035.23 210C3053.4 210 3069.4 213.833 3083.23 221.5C3097.06 229.167 3107.9 239.917 3115.73 253.75C3123.73 267.583 3127.73 283.667 3127.73 302C3127.73 315.667 3125.4 328.25 3120.73 339.75C3116.23 351.083 3109.81 360.917 3101.48 369.25C3093.31 377.417 3083.56 383.75 3072.23 388.25C3061.06 392.75 3048.81 395 3035.48 395ZM3035.23 364.5C3045.73 364.5 3054.98 361.833 3062.98 356.5C3070.98 351.167 3077.23 343.833 3081.73 334.5C3086.4 325 3088.73 314 3088.73 301.5C3088.73 289.167 3086.48 278.417 3081.98 269.25C3077.48 260.083 3071.23 253 3063.23 248C3055.23 243 3045.9 240.5 3035.23 240.5C3024.73 240.5 3015.48 243 3007.48 248C2999.48 253 2993.23 260.083 2988.73 269.25C2984.4 278.25 2982.23 289 2982.23 301.5C2982.23 314.167 2984.48 325.25 2988.98 334.75C2993.48 344.083 2999.73 351.417 3007.73 356.75C3015.73 361.917 3024.9 364.5 3035.23 364.5Z"/>
</mask>
<path d="M1718.56 392.5V362.5H1764.06C1777.06 362.5 1788.06 359.917 1797.06 354.75C1806.22 349.417 1813.14 342.167 1817.81 333C1822.64 323.833 1825.06 313.333 1825.06 301.5C1825.06 289.833 1822.72 279.583 1818.06 270.75C1813.39 261.917 1806.47 255 1797.31 250C1788.31 245 1777.22 242.5 1764.06 242.5H1719.31V212.5H1764.06C1784.22 212.5 1801.81 216.167 1816.81 223.5C1831.81 230.667 1843.39 241 1851.56 254.5C1859.89 267.833 1864.06 283.667 1864.06 302C1864.06 320.333 1859.89 336.333 1851.56 350C1843.22 363.5 1831.56 374 1816.56 381.5C1801.72 388.833 1784.31 392.5 1764.31 392.5H1718.56ZM1695.06 392.5V212.5H1733.56V392.5H1695.06ZM1983.02 392.5V212.5H2063.52C2076.52 212.5 2087.85 214.75 2097.52 219.25C2107.19 223.583 2114.69 229.75 2120.02 237.75C2125.35 245.75 2128.02 255.083 2128.02 265.75C2128.02 276.25 2125.35 285.5 2120.02 293.5C2114.69 301.333 2107.19 307.5 2097.52 312C2087.85 316.333 2076.52 318.5 2063.52 318.5H2013.52V290.25H2062.52C2071.69 290.25 2078.69 288.167 2083.52 284C2088.52 279.667 2091.02 273.667 2091.02 266C2091.02 258.167 2088.6 252.25 2083.77 248.25C2078.94 244.083 2071.85 242 2062.52 242H2021.52V392.5H1983.02ZM2084.52 392.5L2012.27 299H2053.02L2136.52 392.5H2084.52ZM2251.01 392.5V212.5H2289.51V392.5H2251.01ZM2472.49 392.5L2407.99 212.5H2447.99L2497.24 362.5H2492.49L2541.99 212.5H2579.99L2515.49 392.5H2472.49ZM2698.57 392.5V212.5H2737.07V392.5H2698.57ZM2716.57 392.5V363H2832.57V392.5H2716.57ZM2716.57 315V286H2823.82V315H2716.57ZM2716.57 242V212.5H2829.57V242H2716.57ZM3035.48 395C3022.15 395 3009.81 392.75 2998.48 388.25C2987.31 383.75 2977.56 377.417 2969.23 369.25C2961.06 360.917 2954.65 351.083 2949.98 339.75C2945.48 328.25 2943.23 315.583 2943.23 301.75C2943.23 283.417 2947.15 267.417 2954.98 253.75C2962.81 239.917 2973.65 229.167 2987.48 221.5C3001.48 213.833 3017.4 210 3035.23 210C3053.4 210 3069.4 213.833 3083.23 221.5C3097.06 229.167 3107.9 239.917 3115.73 253.75C3123.73 267.583 3127.73 283.667 3127.73 302C3127.73 315.667 3125.4 328.25 3120.73 339.75C3116.23 351.083 3109.81 360.917 3101.48 369.25C3093.31 377.417 3083.56 383.75 3072.23 388.25C3061.06 392.75 3048.81 395 3035.48 395ZM3035.23 364.5C3045.73 364.5 3054.98 361.833 3062.98 356.5C3070.98 351.167 3077.23 343.833 3081.73 334.5C3086.4 325 3088.73 314 3088.73 301.5C3088.73 289.167 3086.48 278.417 3081.98 269.25C3077.48 260.083 3071.23 253 3063.23 248C3055.23 243 3045.9 240.5 3035.23 240.5C3024.73 240.5 3015.48 243 3007.48 248C2999.48 253 2993.23 260.083 2988.73 269.25C2984.4 278.25 2982.23 289 2982.23 301.5C2982.23 314.167 2984.48 325.25 2988.98 334.75C2993.48 344.083 2999.73 351.417 3007.73 356.75C3015.73 361.917 3024.9 364.5 3035.23 364.5Z" fill="#2F2F2F"/>
<path d="M1718.56 392.5H1716.56V394.5H1718.56V392.5ZM1718.56 362.5V360.5H1716.56V362.5H1718.56ZM1797.06 354.75L1798.05 356.485L1798.06 356.479L1797.06 354.75ZM1817.81 333L1816.04 332.067L1816.03 332.08L1816.02 332.093L1817.81 333ZM1818.06 270.75L1819.82 269.816L1819.82 269.816L1818.06 270.75ZM1797.31 250L1796.33 251.748L1796.34 251.752L1796.35 251.756L1797.31 250ZM1719.31 242.5H1717.31V244.5H1719.31V242.5ZM1719.31 212.5V210.5H1717.31V212.5H1719.31ZM1816.81 223.5L1815.93 225.297L1815.94 225.301L1815.94 225.305L1816.81 223.5ZM1851.56 254.5L1849.84 255.535L1849.85 255.548L1849.86 255.56L1851.56 254.5ZM1851.56 350L1853.26 351.051L1853.26 351.041L1851.56 350ZM1816.56 381.5L1817.44 383.293L1817.45 383.289L1816.56 381.5ZM1695.06 392.5H1693.06V394.5H1695.06V392.5ZM1695.06 212.5V210.5H1693.06V212.5H1695.06ZM1733.56 212.5H1735.56V210.5H1733.56V212.5ZM1733.56 392.5V394.5H1735.56V392.5H1733.56ZM1720.56 392.5V362.5H1716.56V392.5H1720.56ZM1718.56 364.5H1764.06V360.5H1718.56V364.5ZM1764.06 364.5C1777.32 364.5 1788.68 361.864 1798.05 356.485L1796.06 353.015C1787.43 357.969 1776.79 360.5 1764.06 360.5V364.5ZM1798.06 356.479C1807.55 350.958 1814.74 343.428 1819.59 333.907L1816.02 332.093C1811.54 340.905 1804.9 347.875 1796.05 353.021L1798.06 356.479ZM1819.58 333.933C1824.58 324.44 1827.06 313.612 1827.06 301.5H1823.06C1823.06 313.055 1820.7 323.227 1816.04 332.067L1819.58 333.933ZM1827.06 301.5C1827.06 289.562 1824.67 278.982 1819.82 269.816L1816.29 271.684C1820.78 280.185 1823.06 290.104 1823.06 301.5H1827.06ZM1819.82 269.816C1814.97 260.619 1807.76 253.423 1798.26 248.244L1796.35 251.756C1805.19 256.577 1811.81 263.215 1816.29 271.684L1819.82 269.816ZM1798.28 248.252C1788.91 243.047 1777.47 240.5 1764.06 240.5V244.5C1776.98 244.5 1787.7 246.953 1796.33 251.748L1798.28 248.252ZM1764.06 240.5H1719.31V244.5H1764.06V240.5ZM1721.31 242.5V212.5H1717.31V242.5H1721.31ZM1719.31 214.5H1764.06V210.5H1719.31V214.5ZM1764.06 214.5C1783.98 214.5 1801.25 218.122 1815.93 225.297L1817.68 221.703C1802.36 214.211 1784.46 210.5 1764.06 210.5V214.5ZM1815.94 225.305C1830.61 232.313 1841.89 242.387 1849.84 255.535L1853.27 253.465C1844.89 239.613 1833 229.021 1817.67 221.695L1815.94 225.305ZM1849.86 255.56C1857.96 268.526 1862.06 283.978 1862.06 302H1866.06C1866.06 283.355 1861.82 267.141 1853.25 253.44L1849.86 255.56ZM1862.06 302C1862.06 320.02 1857.96 335.649 1849.85 348.959L1853.26 351.041C1861.81 337.017 1866.06 320.646 1866.06 302H1862.06ZM1849.85 348.949C1841.73 362.115 1830.35 372.367 1815.66 379.711L1817.45 383.289C1832.76 375.633 1844.72 364.885 1853.26 351.051L1849.85 348.949ZM1815.67 379.707C1801.16 386.879 1784.06 390.5 1764.31 390.5V394.5C1784.55 394.5 1802.28 390.788 1817.44 383.293L1815.67 379.707ZM1764.31 390.5H1718.56V394.5H1764.31V390.5ZM1697.06 392.5V212.5H1693.06V392.5H1697.06ZM1695.06 214.5H1733.56V210.5H1695.06V214.5ZM1731.56 212.5V392.5H1735.56V212.5H1731.56ZM1733.56 390.5H1695.06V394.5H1733.56V390.5ZM1983.02 392.5H1981.02V394.5H1983.02V392.5ZM1983.02 212.5V210.5H1981.02V212.5H1983.02ZM2097.52 219.25L2096.68 221.063L2096.69 221.069L2096.7 221.075L2097.52 219.25ZM2120.02 237.75L2118.36 238.859L2118.36 238.859L2120.02 237.75ZM2120.02 293.5L2121.67 294.626L2121.68 294.618L2121.69 294.609L2120.02 293.5ZM2097.52 312L2098.34 313.825L2098.35 313.819L2098.37 313.813L2097.52 312ZM2013.52 318.5H2011.52V320.5H2013.52V318.5ZM2013.52 290.25V288.25H2011.52V290.25H2013.52ZM2083.52 284L2084.83 285.515L2084.83 285.511L2083.52 284ZM2083.77 248.25L2082.47 249.765L2082.48 249.778L2082.5 249.791L2083.77 248.25ZM2021.52 242V240H2019.52V242H2021.52ZM2021.52 392.5V394.5H2023.52V392.5H2021.52ZM2084.52 392.5L2082.94 393.723L2083.54 394.5H2084.52V392.5ZM2012.27 299V297H2008.2L2010.69 300.223L2012.27 299ZM2053.02 299L2054.51 297.668L2053.92 297H2053.02V299ZM2136.52 392.5V394.5H2140.99L2138.01 391.168L2136.52 392.5ZM1985.02 392.5V212.5H1981.02V392.5H1985.02ZM1983.02 214.5H2063.52V210.5H1983.02V214.5ZM2063.52 214.5C2076.29 214.5 2087.33 216.71 2096.68 221.063L2098.37 217.437C2088.38 212.79 2076.75 210.5 2063.52 210.5V214.5ZM2096.7 221.075C2106.06 225.27 2113.25 231.204 2118.36 238.859L2121.69 236.641C2116.12 228.296 2108.31 221.896 2098.34 217.425L2096.7 221.075ZM2118.36 238.859C2123.45 246.495 2126.02 255.433 2126.02 265.75H2130.02C2130.02 254.733 2127.26 245.005 2121.69 236.641L2118.36 238.859ZM2126.02 265.75C2126.02 275.893 2123.45 284.749 2118.36 292.391L2121.69 294.609C2127.26 286.251 2130.02 276.607 2130.02 265.75H2126.02ZM2118.37 292.374C2113.26 299.874 2106.06 305.819 2096.68 310.187L2098.37 313.813C2108.32 309.181 2116.11 302.793 2121.67 294.626L2118.37 292.374ZM2096.7 310.175C2087.35 314.37 2076.3 316.5 2063.52 316.5V320.5C2076.74 320.5 2088.36 318.297 2098.34 313.825L2096.7 310.175ZM2063.52 316.5H2013.52V320.5H2063.52V316.5ZM2015.52 318.5V290.25H2011.52V318.5H2015.52ZM2013.52 292.25H2062.52V288.25H2013.52V292.25ZM2062.52 292.25C2071.96 292.25 2079.5 290.107 2084.83 285.515L2082.22 282.485C2077.88 286.227 2071.41 288.25 2062.52 288.25V292.25ZM2084.83 285.511C2090.34 280.736 2093.02 274.145 2093.02 266H2089.02C2089.02 273.189 2086.7 278.597 2082.21 282.489L2084.83 285.511ZM2093.02 266C2093.02 257.732 2090.45 251.181 2085.05 246.709L2082.5 249.791C2086.76 253.319 2089.02 258.601 2089.02 266H2093.02ZM2085.08 246.735C2079.74 242.138 2072.12 240 2062.52 240V244C2071.59 244 2078.13 246.028 2082.47 249.765L2085.08 246.735ZM2062.52 240H2021.52V244H2062.52V240ZM2019.52 242V392.5H2023.52V242H2019.52ZM2021.52 390.5H1983.02V394.5H2021.52V390.5ZM2086.1 391.277L2013.85 297.777L2010.69 300.223L2082.94 393.723L2086.1 391.277ZM2012.27 301H2053.02V297H2012.27V301ZM2051.53 300.332L2135.03 393.832L2138.01 391.168L2054.51 297.668L2051.53 300.332ZM2136.52 390.5H2084.52V394.5H2136.52V390.5ZM2251.01 392.5H2249.01V394.5H2251.01V392.5ZM2251.01 212.5V210.5H2249.01V212.5H2251.01ZM2289.51 212.5H2291.51V210.5H2289.51V212.5ZM2289.51 392.5V394.5H2291.51V392.5H2289.51ZM2253.01 392.5V212.5H2249.01V392.5H2253.01ZM2251.01 214.5H2289.51V210.5H2251.01V214.5ZM2287.51 212.5V392.5H2291.51V212.5H2287.51ZM2289.51 390.5H2251.01V394.5H2289.51V390.5ZM2472.49 392.5L2470.61 393.175L2471.08 394.5H2472.49V392.5ZM2407.99 212.5V210.5H2405.15L2406.11 213.175L2407.99 212.5ZM2447.99 212.5L2449.89 211.876L2449.44 210.5H2447.99V212.5ZM2497.24 362.5V364.5H2500L2499.14 361.876L2497.24 362.5ZM2492.49 362.5L2490.59 361.873L2489.72 364.5H2492.49V362.5ZM2541.99 212.5V210.5H2540.54L2540.09 211.873L2541.99 212.5ZM2579.99 212.5L2581.87 213.175L2582.83 210.5H2579.99V212.5ZM2515.49 392.5V394.5H2516.9L2517.37 393.175L2515.49 392.5ZM2474.37 391.825L2409.87 211.825L2406.11 213.175L2470.61 393.175L2474.37 391.825ZM2407.99 214.5H2447.99V210.5H2407.99V214.5ZM2446.09 213.124L2495.34 363.124L2499.14 361.876L2449.89 211.876L2446.09 213.124ZM2497.24 360.5H2492.49V364.5H2497.24V360.5ZM2494.39 363.127L2543.89 213.127L2540.09 211.873L2490.59 361.873L2494.39 363.127ZM2541.99 214.5H2579.99V210.5H2541.99V214.5ZM2578.11 211.825L2513.61 391.825L2517.37 393.175L2581.87 213.175L2578.11 211.825ZM2515.49 390.5H2472.49V394.5H2515.49V390.5ZM2698.57 392.5H2696.57V394.5H2698.57V392.5ZM2698.57 212.5V210.5H2696.57V212.5H2698.57ZM2737.07 212.5H2739.07V210.5H2737.07V212.5ZM2737.07 392.5V394.5H2739.07V392.5H2737.07ZM2716.57 392.5H2714.57V394.5H2716.57V392.5ZM2716.57 363V361H2714.57V363H2716.57ZM2832.57 363H2834.57V361H2832.57V363ZM2832.57 392.5V394.5H2834.57V392.5H2832.57ZM2716.57 315H2714.57V317H2716.57V315ZM2716.57 286V284H2714.57V286H2716.57ZM2823.82 286H2825.82V284H2823.82V286ZM2823.82 315V317H2825.82V315H2823.82ZM2716.57 242H2714.57V244H2716.57V242ZM2716.57 212.5V210.5H2714.57V212.5H2716.57ZM2829.57 212.5H2831.57V210.5H2829.57V212.5ZM2829.57 242V244H2831.57V242H2829.57ZM2700.57 392.5V212.5H2696.57V392.5H2700.57ZM2698.57 214.5H2737.07V210.5H2698.57V214.5ZM2735.07 212.5V392.5H2739.07V212.5H2735.07ZM2737.07 390.5H2698.57V394.5H2737.07V390.5ZM2718.57 392.5V363H2714.57V392.5H2718.57ZM2716.57 365H2832.57V361H2716.57V365ZM2830.57 363V392.5H2834.57V363H2830.57ZM2832.57 390.5H2716.57V394.5H2832.57V390.5ZM2718.57 315V286H2714.57V315H2718.57ZM2716.57 288H2823.82V284H2716.57V288ZM2821.82 286V315H2825.82V286H2821.82ZM2823.82 313H2716.57V317H2823.82V313ZM2718.57 242V212.5H2714.57V242H2718.57ZM2716.57 214.5H2829.57V210.5H2716.57V214.5ZM2827.57 212.5V242H2831.57V212.5H2827.57ZM2829.57 240H2716.57V244H2829.57V240ZM2998.48 388.25L2997.73 390.105L2997.74 390.109L2998.48 388.25ZM2969.23 369.25L2967.8 370.65L2967.82 370.664L2967.83 370.678L2969.23 369.25ZM2949.98 339.75L2948.12 340.479L2948.12 340.495L2948.13 340.511L2949.98 339.75ZM2954.98 253.75L2956.72 254.745L2956.72 254.735L2954.98 253.75ZM2987.48 221.5L2986.52 219.746L2986.51 219.751L2987.48 221.5ZM3115.73 253.75L3113.99 254.735L3113.99 254.743L3114 254.751L3115.73 253.75ZM3120.73 339.75L3118.88 338.998L3118.87 339.005L3118.87 339.012L3120.73 339.75ZM3101.48 369.25L3102.89 370.664L3102.89 370.664L3101.48 369.25ZM3072.23 388.25L3071.49 386.391L3071.48 386.395L3072.23 388.25ZM3062.98 356.5L3061.87 354.836L3061.87 354.836L3062.98 356.5ZM3081.73 334.5L3079.93 333.618L3079.93 333.625L3079.93 333.631L3081.73 334.5ZM3063.23 248L3062.17 249.696L3062.17 249.696L3063.23 248ZM3007.48 248L3008.54 249.696L3008.54 249.696L3007.48 248ZM2988.73 269.25L2986.93 268.369L2986.93 268.375L2986.93 268.382L2988.73 269.25ZM2988.98 334.75L2987.17 335.606L2987.18 335.619L2988.98 334.75ZM3007.73 356.75L3006.62 358.414L3006.63 358.422L3006.64 358.43L3007.73 356.75ZM3035.48 393C3022.38 393 3010.3 390.79 2999.22 386.391L2997.74 390.109C3009.33 394.71 3021.92 397 3035.48 397V393ZM2999.23 386.395C2988.3 381.99 2978.77 375.799 2970.63 367.822L2967.83 370.678C2976.36 379.035 2986.33 385.51 2997.73 390.105L2999.23 386.395ZM2970.66 367.85C2962.68 359.71 2956.4 350.096 2951.83 338.988L2948.13 340.511C2952.89 352.071 2959.45 362.124 2967.8 370.65L2970.66 367.85ZM2951.84 339.021C2947.44 327.78 2945.23 315.364 2945.23 301.75H2941.23C2941.23 315.803 2943.52 328.72 2948.12 340.479L2951.84 339.021ZM2945.23 301.75C2945.23 283.708 2949.08 268.062 2956.72 254.745L2953.24 252.755C2945.21 266.771 2941.23 283.125 2941.23 301.75H2945.23ZM2956.72 254.735C2964.37 241.221 2974.94 230.736 2988.45 223.249L2986.51 219.751C2972.35 227.597 2961.25 238.612 2953.24 252.765L2956.72 254.735ZM2988.44 223.254C3002.11 215.767 3017.69 212 3035.23 212V208C3017.1 208 3000.85 211.9 2986.52 219.746L2988.44 223.254ZM3035.23 212C3053.11 212 3068.77 215.77 3082.26 223.249L3084.2 219.751C3070.03 211.897 3053.68 208 3035.23 208V212ZM3082.26 223.249C3095.77 230.736 3106.34 241.221 3113.99 254.735L3117.47 252.765C3109.46 238.612 3098.36 227.597 3084.2 219.751L3082.26 223.249ZM3114 254.751C3121.8 268.238 3125.73 283.966 3125.73 302H3129.73C3129.73 283.368 3125.66 266.929 3117.46 252.749L3114 254.751ZM3125.73 302C3125.73 315.435 3123.44 327.76 3118.88 338.998L3122.58 340.502C3127.36 328.74 3129.73 315.898 3129.73 302H3125.73ZM3118.87 339.012C3114.47 350.101 3108.2 359.702 3100.07 367.836L3102.89 370.664C3111.43 362.131 3117.99 352.066 3122.59 340.488L3118.87 339.012ZM3100.07 367.836C3092.1 375.799 3082.59 381.986 3071.49 386.391L3072.97 390.109C3084.54 385.514 3094.52 379.034 3102.89 370.664L3100.07 367.836ZM3071.48 386.395C3060.58 390.789 3048.58 393 3035.48 393V397C3049.04 397 3061.55 394.711 3072.98 390.105L3071.48 386.395ZM3035.23 366.5C3046.09 366.5 3055.73 363.737 3064.09 358.164L3061.87 354.836C3054.23 359.93 3045.37 362.5 3035.23 362.5V366.5ZM3064.09 358.164C3072.41 352.617 3078.89 344.998 3083.53 335.369L3079.93 333.631C3075.57 342.668 3069.55 349.716 3061.87 354.836L3064.09 358.164ZM3083.53 335.382C3088.35 325.562 3090.73 314.251 3090.73 301.5H3086.73C3086.73 313.749 3084.44 324.438 3079.93 333.618L3083.53 335.382ZM3090.73 301.5C3090.73 288.924 3088.44 277.861 3083.78 268.369L3080.18 270.131C3084.52 278.973 3086.73 289.41 3086.73 301.5H3090.73ZM3083.78 268.369C3079.13 258.896 3072.63 251.518 3064.29 246.304L3062.17 249.696C3069.83 254.482 3075.83 261.271 3080.18 270.131L3083.78 268.369ZM3064.29 246.304C3055.93 241.08 3046.22 238.5 3035.23 238.5V242.5C3045.57 242.5 3054.53 244.92 3062.17 249.696L3064.29 246.304ZM3035.23 238.5C3024.4 238.5 3014.77 241.083 3006.42 246.304L3008.54 249.696C3016.19 244.917 3025.06 242.5 3035.23 242.5V238.5ZM3006.42 246.304C2998.08 251.518 2991.58 258.896 2986.93 268.369L2990.53 270.131C2994.88 261.271 3000.88 254.482 3008.54 249.696L3006.42 246.304ZM2986.93 268.382C2982.44 277.712 2980.23 288.773 2980.23 301.5H2984.23C2984.23 289.227 2986.36 278.788 2990.53 270.118L2986.93 268.382ZM2980.23 301.5C2980.23 314.403 2982.52 325.789 2987.17 335.606L2990.79 333.894C2986.44 324.711 2984.23 313.93 2984.23 301.5H2980.23ZM2987.18 335.619C2991.82 345.248 2998.3 352.867 3006.62 358.414L3008.84 355.086C3001.16 349.966 2995.14 342.918 2990.78 333.881L2987.18 335.619ZM3006.64 358.43C3015 363.823 3024.55 366.5 3035.23 366.5V362.5C3025.25 362.5 3016.46 360.01 3008.82 355.07L3006.64 358.43Z" fill="#515151" mask="url(#path-3-outside-1_248_1088)"/>
</svg>
