<svg width="1501" height="934" viewBox="0 0 1501 934" fill="none" xmlns="http://www.w3.org/2000/svg">
<path d="M644.057 28.3331C938.057 -45.1668 1341.06 42.3333 1482.56 139.833L1464.56 198.333L1482.56 247.833L1499.56 267.333V363.833L1396.56 416.333C1412.06 233.333 1276.06 225.833 1276.06 225.833H1168.56C1128.56 229.333 1107.56 267.333 1107.56 267.333C1076.06 312.833 1043.06 308.333 1043.06 308.333H433.556C402.056 303.833 375.556 267.333 375.556 267.333C344.556 224.333 315.056 225.833 315.056 225.833H210.056C24.5562 280.333 94.557 449.833 94.557 449.833C-29.4438 387.333 5.55702 303.333 5.55702 303.333L39.057 189.333C157.557 131.833 392.557 126.333 392.557 126.333L416.557 111.833L481.557 135.333H1260.06C1293.56 117.833 1252.06 102.333 1252.06 102.333C1002.06 1.83325 644.057 28.3331 644.057 28.3331Z" fill="#FFCA1E" stroke="#FFEB54" stroke-width="2"/>
<path d="M1056 377.5C1052.5 376.499 486 377.5 448.5 377.5C411 377.5 394.5 350 382 333.5C369.5 317 349.5 296.5 326.5 296.5H212.5C182 296.5 156 342.5 156 342.5H263.5C304.5 342.5 348.5 412.501 346 448.5C343.5 484.499 303.5 556 263.5 556H156C156 556 181 603 212.5 603H326.5C336.5 603 368.5 589.001 382 566.5C395.5 543.999 417 521.5 448.5 521.5H1056C1078.5 521.5 1103.5 543.501 1111.5 556.5C1119.5 569.499 1148.5 603 1176 603H1279.5C1322 603 1343 556.5 1343 556.5H1241C1208 556.5 1152.63 502.556 1153 448C1153.37 393.899 1205 341 1241 341H1343C1343 341 1317.5 296.001 1279.5 296C1251.05 296 1215.59 296 1193.27 296L1176 296C1161 296 1134.5 306.999 1111.5 341C1088.5 375.002 1059.5 378.502 1056 377.5Z" fill="#FFCA1E" stroke="#FFEB54" stroke-width="2"/>
<mask id="path-3-outside-1_248_1068" maskUnits="userSpaceOnUse" x="33" y="687" width="1438" height="190" fill="black">
<rect fill="white" x="33" y="687" width="1438" height="190"/>
<path d="M59 872V842H104.5C117.5 842 128.5 839.417 137.5 834.25C146.667 828.917 153.583 821.667 158.25 812.5C163.083 803.333 165.5 792.833 165.5 781C165.5 769.333 163.167 759.083 158.5 750.25C153.833 741.417 146.917 734.5 137.75 729.5C128.75 724.5 117.667 722 104.5 722H59.75V692H104.5C124.667 692 142.25 695.667 157.25 703C172.25 710.167 183.833 720.5 192 734C200.333 747.333 204.5 763.167 204.5 781.5C204.5 799.833 200.333 815.833 192 829.5C183.667 843 172 853.5 157 861C142.167 868.333 124.75 872 104.75 872H59ZM35.5 872V692H74V872H35.5ZM323.465 872V692H403.965C416.965 692 428.298 694.25 437.965 698.75C447.632 703.083 455.132 709.25 460.465 717.25C465.798 725.25 468.465 734.583 468.465 745.25C468.465 755.75 465.798 765 460.465 773C455.132 780.833 447.632 787 437.965 791.5C428.298 795.833 416.965 798 403.965 798H353.965V769.75H402.965C412.132 769.75 419.132 767.667 423.965 763.5C428.965 759.167 431.465 753.167 431.465 745.5C431.465 737.667 429.048 731.75 424.215 727.75C419.382 723.583 412.298 721.5 402.965 721.5H361.965V872H323.465ZM424.965 872L352.715 778.5H393.465L476.965 872H424.965ZM591.457 872V692H629.957V872H591.457ZM812.934 872L748.434 692H788.434L837.684 842H832.934L882.434 692H920.434L855.934 872H812.934ZM1039.02 872V692H1077.52V872H1039.02ZM1057.02 872V842.5H1173.02V872H1057.02ZM1057.02 794.5V765.5H1164.27V794.5H1057.02ZM1057.02 721.5V692H1170.02V721.5H1057.02ZM1375.92 874.5C1362.59 874.5 1350.26 872.25 1338.92 867.75C1327.76 863.25 1318.01 856.917 1309.67 848.75C1301.51 840.417 1295.09 830.583 1290.42 819.25C1285.92 807.75 1283.67 795.083 1283.67 781.25C1283.67 762.917 1287.59 746.917 1295.42 733.25C1303.26 719.417 1314.09 708.667 1327.92 701C1341.92 693.333 1357.84 689.5 1375.67 689.5C1393.84 689.5 1409.84 693.333 1423.67 701C1437.51 708.667 1448.34 719.417 1456.17 733.25C1464.17 747.083 1468.17 763.167 1468.17 781.5C1468.17 795.167 1465.84 807.75 1461.17 819.25C1456.67 830.583 1450.26 840.417 1441.92 848.75C1433.76 856.917 1424.01 863.25 1412.67 867.75C1401.51 872.25 1389.26 874.5 1375.92 874.5ZM1375.67 844C1386.17 844 1395.42 841.333 1403.42 836C1411.42 830.667 1417.67 823.333 1422.17 814C1426.84 804.5 1429.17 793.5 1429.17 781C1429.17 768.667 1426.92 757.917 1422.42 748.75C1417.92 739.583 1411.67 732.5 1403.67 727.5C1395.67 722.5 1386.34 720 1375.67 720C1365.17 720 1355.92 722.5 1347.92 727.5C1339.92 732.5 1333.67 739.583 1329.17 748.75C1324.84 757.75 1322.67 768.5 1322.67 781C1322.67 793.667 1324.92 804.75 1329.42 814.25C1333.92 823.583 1340.17 830.917 1348.17 836.25C1356.17 841.417 1365.34 844 1375.67 844Z"/>
</mask>
<path d="M59 872V842H104.5C117.5 842 128.5 839.417 137.5 834.25C146.667 828.917 153.583 821.667 158.25 812.5C163.083 803.333 165.5 792.833 165.5 781C165.5 769.333 163.167 759.083 158.5 750.25C153.833 741.417 146.917 734.5 137.75 729.5C128.75 724.5 117.667 722 104.5 722H59.75V692H104.5C124.667 692 142.25 695.667 157.25 703C172.25 710.167 183.833 720.5 192 734C200.333 747.333 204.5 763.167 204.5 781.5C204.5 799.833 200.333 815.833 192 829.5C183.667 843 172 853.5 157 861C142.167 868.333 124.75 872 104.75 872H59ZM35.5 872V692H74V872H35.5ZM323.465 872V692H403.965C416.965 692 428.298 694.25 437.965 698.75C447.632 703.083 455.132 709.25 460.465 717.25C465.798 725.25 468.465 734.583 468.465 745.25C468.465 755.75 465.798 765 460.465 773C455.132 780.833 447.632 787 437.965 791.5C428.298 795.833 416.965 798 403.965 798H353.965V769.75H402.965C412.132 769.75 419.132 767.667 423.965 763.5C428.965 759.167 431.465 753.167 431.465 745.5C431.465 737.667 429.048 731.75 424.215 727.75C419.382 723.583 412.298 721.5 402.965 721.5H361.965V872H323.465ZM424.965 872L352.715 778.5H393.465L476.965 872H424.965ZM591.457 872V692H629.957V872H591.457ZM812.934 872L748.434 692H788.434L837.684 842H832.934L882.434 692H920.434L855.934 872H812.934ZM1039.02 872V692H1077.52V872H1039.02ZM1057.02 872V842.5H1173.02V872H1057.02ZM1057.02 794.5V765.5H1164.27V794.5H1057.02ZM1057.02 721.5V692H1170.02V721.5H1057.02ZM1375.92 874.5C1362.59 874.5 1350.26 872.25 1338.92 867.75C1327.76 863.25 1318.01 856.917 1309.67 848.75C1301.51 840.417 1295.09 830.583 1290.42 819.25C1285.92 807.75 1283.67 795.083 1283.67 781.25C1283.67 762.917 1287.59 746.917 1295.42 733.25C1303.26 719.417 1314.09 708.667 1327.92 701C1341.92 693.333 1357.84 689.5 1375.67 689.5C1393.84 689.5 1409.84 693.333 1423.67 701C1437.51 708.667 1448.34 719.417 1456.17 733.25C1464.17 747.083 1468.17 763.167 1468.17 781.5C1468.17 795.167 1465.84 807.75 1461.17 819.25C1456.67 830.583 1450.26 840.417 1441.92 848.75C1433.76 856.917 1424.01 863.25 1412.67 867.75C1401.51 872.25 1389.26 874.5 1375.92 874.5ZM1375.67 844C1386.17 844 1395.42 841.333 1403.42 836C1411.42 830.667 1417.67 823.333 1422.17 814C1426.84 804.5 1429.17 793.5 1429.17 781C1429.17 768.667 1426.92 757.917 1422.42 748.75C1417.92 739.583 1411.67 732.5 1403.67 727.5C1395.67 722.5 1386.34 720 1375.67 720C1365.17 720 1355.92 722.5 1347.92 727.5C1339.92 732.5 1333.67 739.583 1329.17 748.75C1324.84 757.75 1322.67 768.5 1322.67 781C1322.67 793.667 1324.92 804.75 1329.42 814.25C1333.92 823.583 1340.17 830.917 1348.17 836.25C1356.17 841.417 1365.34 844 1375.67 844Z" fill="#FFCA1E"/>
<path d="M59 872H57V874H59V872ZM59 842V840H57V842H59ZM137.5 834.25L138.496 835.985L138.506 835.979L137.5 834.25ZM158.25 812.5L156.481 811.567L156.474 811.58L156.468 811.593L158.25 812.5ZM158.5 750.25L160.268 749.316L158.5 750.25ZM137.75 729.5L136.779 731.248L136.785 731.252L136.792 731.256L137.75 729.5ZM59.75 722H57.75V724H59.75V722ZM59.75 692V690H57.75V692H59.75ZM157.25 703L156.372 704.797L156.38 704.801L156.388 704.805L157.25 703ZM192 734L190.289 735.035L190.296 735.048L190.304 735.06L192 734ZM192 829.5L193.702 830.551L193.708 830.541L192 829.5ZM157 861L157.886 862.793L157.894 862.789L157 861ZM35.5 872H33.5V874H35.5V872ZM35.5 692V690H33.5V692H35.5ZM74 692H76V690H74V692ZM74 872V874H76V872H74ZM61 872V842H57V872H61ZM59 844H104.5V840H59V844ZM104.5 844C117.762 844 129.125 841.364 138.496 835.984L136.504 832.515C127.875 837.469 117.238 840 104.5 840V844ZM138.506 835.979C147.994 830.458 155.186 822.928 160.032 813.407L156.468 811.593C151.981 820.405 145.339 827.375 136.494 832.521L138.506 835.979ZM160.019 813.433C165.024 803.94 167.5 793.112 167.5 781H163.5C163.5 792.555 161.142 802.727 156.481 811.567L160.019 813.433ZM167.5 781C167.5 769.062 165.111 758.482 160.268 749.316L156.732 751.184C161.223 759.685 163.5 769.604 163.5 781H167.5ZM160.268 749.316C155.41 740.119 148.203 732.923 138.708 727.744L136.792 731.256C145.63 736.077 152.257 742.715 156.732 751.184L160.268 749.316ZM138.721 727.752C129.353 722.547 117.914 720 104.5 720V724C117.419 724 128.147 726.453 136.779 731.248L138.721 727.752ZM104.5 720H59.75V724H104.5V720ZM61.75 722V692H57.75V722H61.75ZM59.75 694H104.5V690H59.75V694ZM104.5 694C124.425 694 141.696 697.622 156.372 704.797L158.128 701.203C142.804 693.711 124.909 690 104.5 690V694ZM156.388 704.805C171.056 711.813 182.335 721.887 190.289 735.035L193.711 732.965C185.332 719.113 173.444 708.521 158.112 701.195L156.388 704.805ZM190.304 735.06C198.408 748.026 202.5 763.478 202.5 781.5H206.5C206.5 762.855 202.259 746.641 193.696 732.94L190.304 735.06ZM202.5 781.5C202.5 799.52 198.408 815.149 190.292 828.459L193.708 830.541C202.259 816.517 206.5 800.146 206.5 781.5H202.5ZM190.298 828.449C182.171 841.615 170.793 851.867 156.106 859.211L157.894 862.789C173.207 855.133 185.162 844.385 193.702 830.551L190.298 828.449ZM156.114 859.207C141.608 866.379 124.506 870 104.75 870V874C124.994 874 142.726 870.288 157.886 862.793L156.114 859.207ZM104.75 870H59V874H104.75V870ZM37.5 872V692H33.5V872H37.5ZM35.5 694H74V690H35.5V694ZM72 692V872H76V692H72ZM74 870H35.5V874H74V870ZM323.465 872H321.465V874H323.465V872ZM323.465 692V690H321.465V692H323.465ZM437.965 698.75L437.121 700.563L437.134 700.569L437.147 700.575L437.965 698.75ZM460.465 717.25L458.801 718.359L460.465 717.25ZM460.465 773L462.118 774.126L462.124 774.118L462.129 774.109L460.465 773ZM437.965 791.5L438.783 793.325L438.796 793.319L438.809 793.313L437.965 791.5ZM353.965 798H351.965V800H353.965V798ZM353.965 769.75V767.75H351.965V769.75H353.965ZM423.965 763.5L425.271 765.015L425.275 765.011L423.965 763.5ZM424.215 727.75L422.909 729.265L422.924 729.278L422.94 729.291L424.215 727.75ZM361.965 721.5V719.5H359.965V721.5H361.965ZM361.965 872V874H363.965V872H361.965ZM424.965 872L423.382 873.223L423.983 874H424.965V872ZM352.715 778.5V776.5H348.642L351.132 779.723L352.715 778.5ZM393.465 778.5L394.957 777.168L394.36 776.5H393.465V778.5ZM476.965 872V874H481.432L478.457 870.668L476.965 872ZM325.465 872V692H321.465V872H325.465ZM323.465 694H403.965V690H323.465V694ZM403.965 694C416.736 694 427.77 696.21 437.121 700.563L438.809 696.937C428.826 692.29 417.194 690 403.965 690V694ZM437.147 700.575C446.506 704.77 453.697 710.704 458.801 718.359L462.129 716.141C456.566 707.796 448.757 701.396 438.783 696.925L437.147 700.575ZM458.801 718.359C463.891 725.995 466.465 734.933 466.465 745.25H470.465C470.465 734.233 467.705 724.505 462.129 716.141L458.801 718.359ZM466.465 745.25C466.465 755.393 463.895 764.249 458.801 771.891L462.129 774.109C467.701 765.751 470.465 756.107 470.465 745.25H466.465ZM458.812 771.874C453.706 779.374 446.503 785.319 437.121 789.687L438.809 793.313C448.76 788.681 456.557 782.293 462.118 774.126L458.812 771.874ZM437.147 789.675C427.789 793.87 416.745 796 403.965 796V800C417.184 800 428.807 797.797 438.783 793.325L437.147 789.675ZM403.965 796H353.965V800H403.965V796ZM355.965 798V769.75H351.965V798H355.965ZM353.965 771.75H402.965V767.75H353.965V771.75ZM402.965 771.75C412.405 771.75 419.944 769.607 425.271 765.015L422.659 761.985C418.319 765.727 411.858 767.75 402.965 767.75V771.75ZM425.275 765.011C430.785 760.236 433.465 753.645 433.465 745.5H429.465C429.465 752.689 427.145 758.097 422.655 761.989L425.275 765.011ZM433.465 745.5C433.465 737.232 430.894 730.681 425.49 726.209L422.94 729.291C427.203 732.819 429.465 738.101 429.465 745.5H433.465ZM425.521 726.235C420.188 721.638 412.561 719.5 402.965 719.5V723.5C412.035 723.5 418.575 725.528 422.909 729.265L425.521 726.235ZM402.965 719.5H361.965V723.5H402.965V719.5ZM359.965 721.5V872H363.965V721.5H359.965ZM361.965 870H323.465V874H361.965V870ZM426.547 870.777L354.297 777.277L351.132 779.723L423.382 873.223L426.547 870.777ZM352.715 780.5H393.465V776.5H352.715V780.5ZM391.973 779.832L475.473 873.332L478.457 870.668L394.957 777.168L391.973 779.832ZM476.965 870H424.965V874H476.965V870ZM591.457 872H589.457V874H591.457V872ZM591.457 692V690H589.457V692H591.457ZM629.957 692H631.957V690H629.957V692ZM629.957 872V874H631.957V872H629.957ZM593.457 872V692H589.457V872H593.457ZM591.457 694H629.957V690H591.457V694ZM627.957 692V872H631.957V692H627.957ZM629.957 870H591.457V874H629.957V870ZM812.934 872L811.051 872.675L811.526 874H812.934V872ZM748.434 692V690H745.592L746.551 692.675L748.434 692ZM788.434 692L790.334 691.376L789.882 690H788.434V692ZM837.684 842V844H840.445L839.584 841.376L837.684 842ZM832.934 842L831.034 841.373L830.168 844H832.934V842ZM882.434 692V690H880.987L880.534 691.373L882.434 692ZM920.434 692L922.316 692.675L923.275 690H920.434V692ZM855.934 872V874H857.341L857.816 872.675L855.934 872ZM814.816 871.325L750.316 691.325L746.551 692.675L811.051 872.675L814.816 871.325ZM748.434 694H788.434V690H748.434V694ZM786.533 692.624L835.783 842.624L839.584 841.376L790.334 691.376L786.533 692.624ZM837.684 840H832.934V844H837.684V840ZM834.833 842.627L884.333 692.627L880.534 691.373L831.034 841.373L834.833 842.627ZM882.434 694H920.434V690H882.434V694ZM918.551 691.325L854.051 871.325L857.816 872.675L922.316 692.675L918.551 691.325ZM855.934 870H812.934V874H855.934V870ZM1039.02 872H1037.02V874H1039.02V872ZM1039.02 692V690H1037.02V692H1039.02ZM1077.52 692H1079.52V690H1077.52V692ZM1077.52 872V874H1079.52V872H1077.52ZM1057.02 872H1055.02V874H1057.02V872ZM1057.02 842.5V840.5H1055.02V842.5H1057.02ZM1173.02 842.5H1175.02V840.5H1173.02V842.5ZM1173.02 872V874H1175.02V872H1173.02ZM1057.02 794.5H1055.02V796.5H1057.02V794.5ZM1057.02 765.5V763.5H1055.02V765.5H1057.02ZM1164.27 765.5H1166.27V763.5H1164.27V765.5ZM1164.27 794.5V796.5H1166.27V794.5H1164.27ZM1057.02 721.5H1055.02V723.5H1057.02V721.5ZM1057.02 692V690H1055.02V692H1057.02ZM1170.02 692H1172.02V690H1170.02V692ZM1170.02 721.5V723.5H1172.02V721.5H1170.02ZM1041.02 872V692H1037.02V872H1041.02ZM1039.02 694H1077.52V690H1039.02V694ZM1075.52 692V872H1079.52V692H1075.52ZM1077.52 870H1039.02V874H1077.52V870ZM1059.02 872V842.5H1055.02V872H1059.02ZM1057.02 844.5H1173.02V840.5H1057.02V844.5ZM1171.02 842.5V872H1175.02V842.5H1171.02ZM1173.02 870H1057.02V874H1173.02V870ZM1059.02 794.5V765.5H1055.02V794.5H1059.02ZM1057.02 767.5H1164.27V763.5H1057.02V767.5ZM1162.27 765.5V794.5H1166.27V765.5H1162.27ZM1164.27 792.5H1057.02V796.5H1164.27V792.5ZM1059.02 721.5V692H1055.02V721.5H1059.02ZM1057.02 694H1170.02V690H1057.02V694ZM1168.02 692V721.5H1172.02V692H1168.02ZM1170.02 719.5H1057.02V723.5H1170.02V719.5ZM1338.92 867.75L1338.18 869.605L1338.19 869.609L1338.92 867.75ZM1309.67 848.75L1308.25 850.15L1308.26 850.164L1308.27 850.178L1309.67 848.75ZM1290.42 819.25L1288.56 819.979L1288.57 819.995L1288.57 820.011L1290.42 819.25ZM1295.42 733.25L1297.16 734.245L1297.16 734.235L1295.42 733.25ZM1327.92 701L1326.96 699.246L1326.95 699.251L1327.92 701ZM1456.17 733.25L1454.43 734.235L1454.44 734.243L1454.44 734.251L1456.17 733.25ZM1461.17 819.25L1459.32 818.498L1459.32 818.505L1459.31 818.512L1461.17 819.25ZM1441.92 848.75L1443.34 850.164L1441.92 848.75ZM1412.67 867.75L1411.94 865.891L1411.93 865.895L1412.67 867.75ZM1403.42 836L1402.31 834.336L1403.42 836ZM1422.17 814L1420.38 813.118L1420.38 813.125L1420.37 813.131L1422.17 814ZM1403.67 727.5L1402.61 729.196L1403.67 727.5ZM1347.92 727.5L1348.98 729.196H1348.98L1347.92 727.5ZM1329.17 748.75L1327.38 747.869L1327.38 747.875L1327.37 747.882L1329.17 748.75ZM1329.42 814.25L1327.62 815.106L1327.62 815.119L1329.42 814.25ZM1348.17 836.25L1347.06 837.914L1347.08 837.922L1347.09 837.93L1348.17 836.25ZM1375.92 872.5C1362.82 872.5 1350.74 870.29 1339.66 865.891L1338.19 869.609C1349.78 874.21 1362.36 876.5 1375.92 876.5V872.5ZM1339.67 865.895C1328.74 861.49 1319.21 855.299 1311.07 847.322L1308.27 850.178C1316.8 858.535 1326.77 865.01 1338.18 869.605L1339.67 865.895ZM1311.1 847.35C1303.12 839.21 1296.85 829.596 1292.27 818.488L1288.57 820.011C1293.33 831.571 1299.89 841.624 1308.25 850.15L1311.1 847.35ZM1292.29 818.521C1287.89 807.28 1285.67 794.864 1285.67 781.25H1281.67C1281.67 795.303 1283.96 808.22 1288.56 819.979L1292.29 818.521ZM1285.67 781.25C1285.67 763.208 1289.53 747.562 1297.16 734.245L1293.69 732.255C1285.66 746.271 1281.67 762.625 1281.67 781.25H1285.67ZM1297.16 734.235C1304.82 720.721 1315.38 710.236 1328.89 702.749L1326.95 699.251C1312.8 707.097 1301.7 718.112 1293.68 732.265L1297.16 734.235ZM1328.88 702.754C1342.56 695.267 1358.14 691.5 1375.67 691.5V687.5C1357.54 687.5 1341.29 691.4 1326.96 699.246L1328.88 702.754ZM1375.67 691.5C1393.55 691.5 1409.21 695.27 1422.7 702.749L1424.64 699.251C1410.47 691.397 1394.13 687.5 1375.67 687.5V691.5ZM1422.7 702.749C1436.21 710.236 1446.78 720.721 1454.43 734.235L1457.91 732.265C1449.9 718.112 1438.8 707.097 1424.64 699.251L1422.7 702.749ZM1454.44 734.251C1462.24 747.738 1466.17 763.466 1466.17 781.5H1470.17C1470.17 762.868 1466.11 746.429 1457.91 732.249L1454.44 734.251ZM1466.17 781.5C1466.17 794.935 1463.88 807.26 1459.32 818.498L1463.03 820.002C1467.8 808.24 1470.17 795.398 1470.17 781.5H1466.17ZM1459.31 818.512C1454.91 829.601 1448.64 839.202 1440.51 847.336L1443.34 850.164C1451.87 841.631 1458.44 831.566 1463.03 819.988L1459.31 818.512ZM1440.51 847.336C1432.55 855.299 1423.03 861.486 1411.94 865.891L1413.41 869.609C1424.98 865.014 1434.97 858.534 1443.34 850.164L1440.51 847.336ZM1411.93 865.895C1401.02 870.289 1389.03 872.5 1375.92 872.5V876.5C1389.49 876.5 1401.99 874.211 1413.42 869.605L1411.93 865.895ZM1375.67 846C1386.53 846 1396.17 843.237 1404.53 837.664L1402.31 834.336C1394.67 839.43 1385.82 842 1375.67 842V846ZM1404.53 837.664C1412.85 832.117 1419.33 824.498 1423.98 814.869L1420.37 813.131C1416.02 822.168 1409.99 829.216 1402.31 834.336L1404.53 837.664ZM1423.97 814.882C1428.79 805.062 1431.17 793.751 1431.17 781H1427.17C1427.17 793.249 1424.89 803.938 1420.38 813.118L1423.97 814.882ZM1431.17 781C1431.17 768.424 1428.88 757.361 1424.22 747.869L1420.63 749.631C1424.97 758.473 1427.17 768.91 1427.17 781H1431.17ZM1424.22 747.869C1419.57 738.396 1413.08 731.018 1404.73 725.804L1402.61 729.196C1410.27 733.982 1416.28 740.771 1420.63 749.631L1424.22 747.869ZM1404.73 725.804C1396.38 720.58 1386.67 718 1375.67 718V722C1386.02 722 1394.97 724.42 1402.61 729.196L1404.73 725.804ZM1375.67 718C1364.84 718 1355.22 720.583 1346.86 725.804L1348.98 729.196C1356.63 724.417 1365.51 722 1375.67 722V718ZM1346.86 725.804C1338.52 731.018 1332.03 738.396 1327.38 747.869L1330.97 749.631C1335.32 740.771 1341.33 733.982 1348.98 729.196L1346.86 725.804ZM1327.37 747.882C1322.88 757.212 1320.67 768.273 1320.67 781H1324.67C1324.67 768.727 1326.8 758.288 1330.98 749.618L1327.37 747.882ZM1320.67 781C1320.67 793.903 1322.97 805.289 1327.62 815.106L1331.23 813.394C1326.88 804.211 1324.67 793.43 1324.67 781H1320.67ZM1327.62 815.119C1332.27 824.748 1338.74 832.367 1347.06 837.914L1349.28 834.586C1341.6 829.466 1335.58 822.418 1331.23 813.381L1327.62 815.119ZM1347.09 837.93C1355.44 843.323 1364.99 846 1375.67 846V842C1365.69 842 1356.91 839.51 1349.26 834.57L1347.09 837.93Z" fill="#FFEB54" mask="url(#path-3-outside-1_248_1068)"/>
</svg>
