<svg width="1501" height="604" viewBox="0 0 1501 604" fill="none" xmlns="http://www.w3.org/2000/svg">
<path d="M644.057 28.3331C938.057 -45.1668 1341.06 42.3333 1482.56 139.833L1464.56 198.333L1482.56 247.833L1499.56 267.333V363.833L1396.56 416.333C1412.06 233.333 1276.06 225.833 1276.06 225.833H1168.56C1128.56 229.333 1107.56 267.333 1107.56 267.333C1076.06 312.833 1043.06 308.333 1043.06 308.333H433.556C402.056 303.833 375.556 267.333 375.556 267.333C344.556 224.333 315.056 225.833 315.056 225.833H210.056C24.5562 280.333 94.557 449.833 94.557 449.833C-29.4438 387.333 5.55702 303.333 5.55702 303.333L39.057 189.333C157.557 131.833 392.557 126.333 392.557 126.333L416.557 111.833L481.557 135.333H1260.06C1293.56 117.833 1252.06 102.333 1252.06 102.333C1002.06 1.83325 644.057 28.3331 644.057 28.3331Z" fill="#FFCA1E" stroke="#FFEB54" stroke-width="2"/>
<path d="M1056 377.5C1052.5 376.499 486 377.5 448.5 377.5C411 377.5 394.5 350 382 333.5C369.5 317 349.5 296.5 326.5 296.5H212.5C182 296.5 156 342.5 156 342.5H263.5C304.5 342.5 348.5 412.501 346 448.5C343.5 484.499 303.5 556 263.5 556H156C156 556 181 603 212.5 603H326.5C336.5 603 368.5 589.001 382 566.5C395.5 543.999 417 521.5 448.5 521.5H1056C1078.5 521.5 1103.5 543.501 1111.5 556.5C1119.5 569.499 1148.5 603 1176 603H1279.5C1322 603 1343 556.5 1343 556.5H1241C1208 556.5 1152.63 502.556 1153 448C1153.37 393.899 1205 341 1241 341H1343C1343 341 1317.5 296.001 1279.5 296C1251.05 296 1215.59 296 1193.27 296L1176 296C1161 296 1134.5 306.999 1111.5 341C1088.5 375.002 1059.5 378.502 1056 377.5Z" fill="#FFCA1E" stroke="#FFEB54" stroke-width="2"/>
</svg>
